<svg width="256" height="256" viewBox="0 0 256 256" fill="none" xmlns="http://www.w3.org/2000/svg">
<path d="M109.624 28.6691C107.233 28.9185 105.195 27.6528 103.058 26.9322C92.2546 23.3107 81.3694 21.1673 70.0586 24.3362C52.5536 29.2419 44.4939 46.7677 43.3981 59.2677C42.0126 75.0659 47.9351 88.5544 56.022 101.387C59.4633 106.847 63.2124 112.085 67.1608 117.167C72.4222 123.929 74.6409 131.736 74.5141 140.245C74.333 152.154 74.0161 164.062 74.6047 175.971C75.3563 191.316 77.1766 206.496 81.5053 221.268C82.2841 223.929 83.0267 228.474 85.019 228.327C87.781 228.123 87.7538 223.735 88.3696 221.01C90.8509 209.988 92.9247 198.874 95.5057 187.88C97.335 180.064 100.242 172.645 104.715 165.882C116.262 148.421 137.516 148.07 149.723 165.06C156.877 175.019 159.63 186.475 161.46 198.31C162.501 205.054 163.289 211.845 164.285 218.608C164.502 220.104 164.982 221.601 165.571 222.996C167.328 227.153 170.162 227.523 172.78 223.781C177.144 217.545 179.436 210.348 181.5 203.087C185.313 189.672 186.789 175.832 188.546 162.048C190.411 147.433 194.649 133.547 200.264 120.04C204.819 109.083 210.325 98.5414 214.165 87.2794C218.394 74.8626 219.988 62.1963 215.623 49.5024C208.641 29.168 185.159 18.1277 164.783 25.3062C159.087 27.311 153.626 29.8055 148.763 33.5102C144.679 33.5102 140.903 32.263 136.837 30.5353C139.372 28.549 141.953 27.5789 144.435 26.4795C155.13 21.7493 165.571 16.1691 177.507 15.3469C199.793 13.8225 220.341 27.0893 225.575 47.6916C228.455 59.0275 226.707 70.2155 223.837 81.2465C220.758 93.0628 215.469 104.001 209.981 114.755C200.989 132.374 197.239 151.184 195.392 170.76C193.626 189.432 190.366 207.918 182.877 225.306C181.337 228.872 179.599 232.345 177.181 235.394C171.838 242.129 164.593 241.492 160.79 233.75C157.339 226.728 155.927 219.023 154.405 211.401C152.195 200.306 150.276 189.145 146.889 178.336C145.567 174.123 143.52 170.317 140.631 167.009C133.64 159.018 122.148 159.212 115.447 167.453C111.172 172.71 109.325 179.057 108.093 185.57C106.083 196.222 104.426 206.939 102.406 217.582C101.347 223.162 99.4088 228.474 96.1577 233.195C91.5935 239.82 84.1768 240.189 79.2956 233.805C74.3964 227.394 71.5891 219.882 69.1168 212.233C63.5384 194.966 61.0209 177.061 59.7893 159.073C58.612 141.834 53.4592 126.11 45.8885 110.921C40.8625 100.842 35.4108 90.8733 32.685 79.8145C28.8815 64.3952 28.5646 49.1051 37.1858 35.0069C42.574 26.1931 50.4979 20.8439 60.3054 17.5827C75.8725 12.409 89.5922 16.8343 103.004 24.3731C105.295 25.6573 107.776 26.692 109.651 28.6783L109.624 28.6691Z" fill="#33A8C5"/>
<path d="M208.494 64.7278C208.313 75.8697 206.094 85.4318 202.246 94.6243C202.019 95.1601 201.684 95.6498 201.44 96.1856C200.462 98.3382 198.822 99.2806 196.667 98.3752C194.403 97.4236 194.747 95.465 195.436 93.5618C197.636 87.4735 199.429 81.2836 200.018 74.7795C200.978 64.1828 199.728 54.1033 193.561 45.1048C192.456 43.4881 191.007 41.5941 193.117 39.8203C195.091 38.1573 197.066 39.1644 198.714 40.661C206.094 47.3776 208.078 56.2929 208.485 64.7186L208.494 64.7278Z" fill="#33A8C5"/>
<path d="M53.2895 69.6331C50.3645 58.6205 51.3606 48.6889 58.9766 40.5127C66.7919 32.1147 76.5722 29.1768 87.7743 31.8098C89.5583 32.2256 91.3786 32.9185 91.1522 35.1265C90.9077 37.5009 89.1055 38.4432 86.8778 38.3046C69.3728 37.1683 58.3427 50.3149 54.9468 64.9121C54.6117 66.3533 54.7113 67.9978 53.2895 69.6331Z" fill="#0E5DA8"/>
<path fill-rule="evenodd" clip-rule="evenodd" d="M145.89 229.739C154.58 253.726 173.307 254.681 181.5 244.5C191.559 232 197.488 212.935 198.049 210.866C200.675 201.193 202.695 191.391 203.945 181.431C204.623 175.999 205.252 170.559 205.881 165.118C206.404 160.602 206.926 156.085 207.476 151.572C208.875 140.111 213.678 129.922 218.483 119.731C219.185 118.24 219.888 116.749 220.58 115.254C220.835 114.704 221.09 114.154 221.345 113.603C227.833 99.5996 234.303 85.6366 236.22 69.9201C238.085 54.5931 236.437 39.8574 227.101 27.5606C216.46 13.5455 201.699 6.12685 184.176 5.09211C173.807 4.48236 163.936 6.94909 154.481 11.0326C147.12 14.2102 139.85 17.628 132.586 21.0434C130.726 21.9177 128.866 22.7919 127.006 23.6619C125.195 24.5119 123.673 24.6966 121.862 23.5233C118.679 21.4687 115.379 19.5849 112.086 17.7055C111.707 17.4891 111.328 17.2728 110.95 17.0562C96.9494 9.04628 82.4057 3.1797 65.8787 5.74806C45.6207 8.89846 31.1494 19.8186 23.9952 39.6171C17.8735 56.5702 19.5941 73.634 25.417 90.2914C28.6771 99.6225 33.2322 108.436 37.8779 117.139C46.0191 132.383 49.5328 148.754 50.4475 165.947C50.9093 174.668 51.6428 183.473 53.4178 191.991C54.7581 198.43 56.207 204.962 58.3442 211.235C58.4993 211.691 58.5904 212.31 58.7089 213.116C59.1648 216.217 60.0269 222.079 66.5 232C73 244.5 76.4493 246.903 85 247.5C98.8702 248.468 102.075 243.149 106.348 236.058C107.301 234.475 108.308 232.804 109.499 231.094L112.184 219.134C112.185 218.935 112.198 218.745 112.225 218.569C113.402 211.021 116.827 190.032 118.982 182.678C119.779 179.962 120.839 177.357 122.532 175.075C125.81 170.64 129.94 170.456 133.571 174.604C136.189 177.588 137.429 181.32 138.353 185.071C139.317 189.007 140.149 192.977 140.981 196.946C141.524 199.535 142.066 202.124 142.645 204.704C142.933 205.983 143.911 213.319 143.974 218.304C144.705 220.82 145.93 226.354 145.89 229.739ZM174.893 34.2495C166.073 35.238 157.379 35.3489 148.758 33.5104H148.731C144.647 33.5104 140.87 32.2724 136.804 30.5355C138.978 28.8327 141.185 27.8768 143.334 26.9459C143.692 26.7909 144.048 26.6366 144.402 26.4797C146.023 25.7629 147.638 25.0263 149.253 24.2896C158.296 20.1651 167.347 16.0369 177.474 15.3471C199.761 13.8227 220.309 27.0895 225.543 47.6918C228.423 59.0277 226.675 70.2157 223.804 81.2467C220.734 93.063 215.437 104.002 209.949 114.756C200.956 132.374 197.207 151.184 195.36 170.761C193.594 189.441 190.334 207.928 182.844 225.306C181.314 228.872 179.566 232.346 177.148 235.394C171.805 242.13 164.561 241.492 160.757 233.75C157.49 227.101 156.05 219.847 154.614 212.615C154.534 212.211 154.453 211.806 154.373 211.402C154.009 209.576 153.653 207.748 153.298 205.921C151.492 196.643 149.686 187.367 146.856 178.336C145.534 174.123 143.488 170.317 140.599 167.01C133.608 159.009 122.125 159.203 115.414 167.453C111.14 172.71 109.293 179.057 108.061 185.57C107.066 190.838 106.157 196.124 105.249 201.411C104.321 206.806 103.394 212.202 102.374 217.582C101.323 223.162 99.3764 228.475 96.1253 233.196C91.5612 239.82 84.1444 240.189 79.2633 233.805C74.364 227.394 71.5567 219.883 69.0845 212.233C63.5061 194.966 60.9885 177.061 59.7569 159.074C58.5797 141.834 53.4268 126.11 45.8561 110.921C45.202 109.608 44.5406 108.297 43.8789 106.986C39.4572 98.2216 35.0237 89.4341 32.6527 79.8147C28.8583 64.3953 28.5322 49.1053 37.1534 35.007C42.5417 26.1933 50.4565 20.8441 60.2731 17.5828C75.8401 12.4184 89.5598 16.8437 102.972 24.3733C103.483 24.6621 104.004 24.9376 104.526 25.2134C106.341 26.1726 108.163 27.1357 109.619 28.6785C109.942 28.8449 110.264 29.0114 110.587 29.1778C118.693 33.3568 126.786 37.5296 135.826 39.3954C148.242 41.9545 160.35 41.391 172.077 36.2173C172.302 36.1184 172.543 36.0406 172.789 35.9617C173.621 35.6938 174.495 35.4125 174.893 34.2495Z" fill="#0E5DA8"/>
</svg>
