<svg width="292" height="109" viewBox="0 0 292 109" fill="none" xmlns="http://www.w3.org/2000/svg">
<g clip-path="url(#clip0_12180_42500)">
<path d="M44.2685 109C42.8961 108.05 41.1252 107.732 40.0586 106.275C39.5837 105.627 39.1651 104.999 39.0645 104.19C42.4614 102.492 45.8543 100.785 49.2553 99.099C49.8228 98.8173 50.2615 98.451 50.4426 97.8271C54.0448 102.834 50.833 107.483 47.0899 108.525C46.6754 108.642 46.1119 108.42 45.8744 109H44.2685Z" fill="#4C6DB4"/>
<path d="M233.531 51.6466C233.543 35.165 245.956 22.8852 262.562 22.9215C279.112 22.9577 291.336 35.1569 291.348 51.6546C291.36 68.1805 279 80.5286 262.454 80.5206C245.944 80.5125 233.519 68.104 233.531 51.6466ZM249.578 51.7552C249.49 53.172 249.711 54.5525 250.049 55.9169C251.554 61.9702 256.187 65.9548 261.886 66.1158C268.197 66.2929 272.636 62.9563 274.588 56.6132C275.494 53.667 275.57 50.7088 274.878 47.7224C273.449 41.5684 268.821 37.5154 263.021 37.3182C256.867 37.1089 251.977 40.7916 250.178 47.014C249.731 48.5595 249.482 50.1413 249.582 51.7552H249.578Z" fill="#3764AE"/>
<path d="M118.97 73.8715C112.373 80.2911 104.73 81.4422 96.4508 79.3252C87.886 77.1397 83.8733 70.7402 84.6541 62.0507C85.4671 52.9828 91.4842 46.9737 101.345 44.909C106.577 43.8142 111.862 43.8666 117.13 44.3898C118.877 44.5628 119.175 43.9913 119.002 42.4981C118.688 39.7693 117.235 37.942 114.723 36.9399C109.664 34.9154 104.617 35.5392 99.6103 37.1491C97.8273 37.7207 96.1047 38.4975 94.5511 39.5479C93.6536 40.1557 93.2229 39.9907 92.6715 39.1414C90.969 36.5052 89.2464 33.881 87.4192 31.3293C86.6665 30.2788 86.8919 29.7797 87.8941 29.1478C92.2328 26.4069 96.8292 24.3462 101.957 23.6177C107.149 22.8772 112.349 22.531 117.537 23.5412C127.458 25.4732 133.6 32.259 134.687 42.3009C135.363 48.5635 134.948 54.8422 135.037 61.1129C135.109 66.321 135.005 71.5291 135.081 76.7372C135.101 78.162 134.831 78.7295 133.242 78.6812C129.229 78.5604 125.208 78.5806 121.191 78.6731C119.803 78.7053 119.272 78.3069 119.328 76.9062C119.364 75.9886 119.119 75.0629 118.966 73.8796L118.97 73.8715ZM113.254 54.476C110.099 54.4639 106.948 54.5605 104.07 56.0577C101.482 57.406 100.403 59.6599 100.576 62.5095C100.737 65.1457 101.969 67.134 104.569 67.9349C108.984 69.2994 113.045 68.5145 116.543 65.4516C118.648 63.6083 120.35 57.4583 118.881 55.4137C117.662 53.7233 115.178 54.6973 113.254 54.4719V54.476Z" fill="#3764AE"/>
<path d="M149.839 58.054C149.839 51.9122 149.791 45.7703 149.871 39.6325C149.891 38.1352 149.469 37.6201 147.951 37.7247C146.088 37.8495 144.204 37.7126 142.333 37.769C141.367 37.7971 141.065 37.447 141.077 36.5012C141.121 33.0318 141.137 29.5584 141.069 26.089C141.049 24.9499 141.536 24.7688 142.498 24.801C144.168 24.8574 145.85 24.7125 147.513 24.8453C149.259 24.9862 150.024 24.5636 149.883 22.6075C149.706 20.1524 149.94 17.6811 150.563 15.2622C152.777 6.69741 160.295 0.668243 169.822 0.0685458C176.028 -0.321861 181.929 0.784962 187.23 4.31875C188.546 5.19616 188.896 5.8683 187.853 7.26491C186.018 9.72407 184.348 12.308 182.694 14.8919C182.114 15.7935 181.716 16.0269 180.709 15.383C178.584 14.0185 176.189 13.439 173.646 13.4953C169.5 13.5839 166.759 16.1276 166.381 20.257C166.105 23.2944 167.465 24.8131 170.462 24.8131C172.873 24.8131 175.28 24.8453 177.691 24.797C178.624 24.7769 178.991 25.0626 178.975 26.0366C178.93 29.506 178.918 32.9794 178.979 36.4488C178.999 37.5637 178.524 37.777 177.546 37.7609C174.737 37.7167 171.923 37.7287 169.114 37.7489C165.894 37.773 166.292 37.3343 166.288 40.6709C166.272 52.6205 166.252 64.5662 166.321 76.5159C166.329 78.1338 165.97 78.7134 164.252 78.6651C160.038 78.5444 155.82 78.5685 151.606 78.6571C150.201 78.6852 149.791 78.2868 149.807 76.8741C149.879 70.5994 149.839 64.3247 149.839 58.05V58.054Z" fill="#3764AE"/>
<path d="M54.8103 80.5685C47.3282 80.2385 39.9225 79.0713 33.4868 74.5071C31.0317 72.7684 31.0478 72.7362 32.8952 70.3374C34.7265 67.9547 36.6222 65.6163 38.377 63.1773C39.1135 62.151 39.5361 62.2113 40.5383 62.9076C45.7665 66.5581 51.5341 68.3089 57.9577 67.3349C58.8713 67.1981 59.7769 66.9163 60.6543 66.6145C62.1274 66.1114 62.9565 65.0287 63.0934 63.4912C63.2302 61.9376 62.5057 60.7866 61.1896 60.0057C58.5695 58.4562 55.6515 57.6955 52.7576 56.8946C49.3406 55.9447 45.9557 54.9063 42.8002 53.2642C37.6123 50.5676 34.0825 46.6836 33.837 40.5176C33.5794 34.1584 36.6745 29.7271 41.943 26.5837C45.6297 24.3821 49.6907 23.3276 53.953 23.062C61.8618 22.571 69.4083 23.7542 76.3591 27.8233C77.7477 28.6363 78.3031 29.2199 77.144 30.7896C75.2845 33.3092 73.6585 36.0098 72.0365 38.6903C71.4046 39.7368 70.9015 39.8535 69.8591 39.1975C65.5525 36.5008 60.8757 35.1243 55.74 35.6073C55.406 35.6395 55.0719 35.6395 54.7378 35.6838C52.2143 36.0219 50.5359 37.3179 50.3186 39.0888C50.0892 40.9603 51.2242 42.4535 53.8403 43.3189C57.2614 44.4498 60.7308 45.448 64.1881 46.4622C66.438 47.1223 68.6275 47.9273 70.7123 49.0059C76.2022 51.8434 78.9873 56.3633 79.2208 62.5051C79.4582 68.7919 76.7013 73.4245 71.3684 76.588C66.3293 79.5784 60.7429 80.4196 54.8264 80.5645L54.8103 80.5685Z" fill="#3764AE"/>
<path d="M209.801 80.5244C194.66 80.5123 183.652 71.4082 181.068 56.7579C177.695 37.628 193.384 21.0216 212.76 23.042C219.437 23.7383 225.353 25.8594 230.324 30.4477C231.314 31.3653 231.636 31.9489 230.473 33.1C227.82 35.7363 225.317 38.5255 222.846 41.3308C221.96 42.337 221.445 42.5221 220.399 41.4596C217.082 38.1069 212.973 36.7586 208.312 37.467C202.162 38.4007 197.824 43.6732 197.401 50.4953C197.284 52.3789 197.481 54.2223 198.013 56.0334C201.003 66.1961 211.379 69.2348 219.96 62.3242C221.582 61.0162 222.315 61 223.602 62.6301C225.756 65.3509 228.146 67.8825 230.529 70.4141C231.374 71.3116 231.282 71.8107 230.445 72.6479C225.474 77.6024 217.903 80.5284 209.801 80.5244Z" fill="#3764AE"/>
<path d="M27.3772 89.4517C30.9834 89.4597 34.1751 92.7077 34.1067 96.2938C34.0342 99.9926 30.907 103.019 27.2242 102.955C23.6623 102.891 20.5954 99.7753 20.6075 96.2335C20.6195 92.5387 23.7106 89.4436 27.3772 89.4557V89.4517Z" fill="#657CBC"/>
<path d="M15.6806 36.5129C11.6236 36.8591 9.06385 33.2891 8.95116 30.0853C8.81834 26.3865 12.1066 23.1989 15.8336 23.2431C19.468 23.2874 22.4584 26.1772 22.4423 30.1336C22.4303 33.7036 19.3191 36.9154 15.6806 36.5089V36.5129Z" fill="#B9C0E2"/>
<path d="M0 65.8701C0 61.8896 2.64833 59.2533 6.64497 59.2573C10.4323 59.2573 13.3543 62.2035 13.3141 65.9788C13.2779 69.6051 10.2914 72.5553 6.65704 72.5634C2.79725 72.5674 0 69.754 0 65.8701Z" fill="#96A2D2"/>
<path d="M67.1982 94.4985C70.4261 96.201 71.7181 99.6825 70.3496 102.963C69.0375 106.102 65.3065 107.845 62.0223 106.851C58.8226 105.885 56.8987 102.689 57.5266 99.3847C60.2916 98.7085 62.7427 97.2958 65.2945 96.1165C66.0753 95.7543 66.848 95.3759 67.1982 94.5026V94.4985Z" fill="#446AB2"/>
<path d="M156.787 96.8854C156.787 94.9535 156.815 93.0176 156.775 91.0857C156.759 90.2606 156.98 89.8581 157.886 89.8943C159.951 89.9829 162.043 89.8299 164.084 90.0996C167.417 90.5383 169.292 93.3154 169.107 97.143C168.914 101.067 166.881 103.534 163.517 103.756C161.653 103.881 159.773 103.756 157.906 103.816C157.029 103.844 156.747 103.559 156.771 102.681C156.827 100.749 156.787 98.8173 156.791 96.8854H156.787ZM159.91 96.5997C159.91 97.6622 159.979 98.7328 159.89 99.7913C159.798 100.934 160.208 101.321 161.355 101.248C162.901 101.156 164.531 101.268 165.388 99.6465C166.354 97.8192 166.286 95.9074 165.328 94.1003C164.611 92.7439 162.092 91.9309 160.498 92.595C159.274 93.1021 160.132 94.3297 159.926 95.2071C159.822 95.6498 159.91 96.1328 159.91 96.5997Z" fill="#2B2829"/>
<path d="M229.841 89.6366C231.725 89.6688 233.476 90.0793 234.542 91.7818C234.953 92.4379 235.729 93.5246 234.735 93.9834C234.031 94.3054 232.622 94.7521 231.99 93.3274C231.326 91.8341 230.002 91.975 228.722 92.1441C227.99 92.2447 227.523 92.6834 227.466 93.4722C227.414 94.2249 227.893 94.567 228.501 94.7481C229.777 95.1305 231.077 95.4364 232.349 95.8308C234.627 96.5351 235.641 97.8029 235.597 99.8033C235.552 101.848 234.353 103.232 232.099 103.836C228.783 104.73 225.386 103.647 224.4 101.264C224.154 100.677 223.289 99.6181 224.444 99.2841C225.229 99.0547 226.492 98.5073 227.145 100.037C227.829 101.635 229.696 102.138 231.387 101.486C232.071 101.22 232.582 100.822 232.626 100.085C232.671 99.3203 232.135 98.8574 231.475 98.624C230.533 98.294 229.563 98.0364 228.601 97.7788C225.45 96.9296 224.118 95.5128 224.428 93.3153C224.754 91.0091 226.855 89.5762 229.841 89.6366Z" fill="#2B2829"/>
<path d="M17.8261 78.3551C20.2611 80.6331 20.893 83.4747 19.5809 86.2397C18.3453 88.8478 15.4515 90.4778 12.7508 90.0874C9.57926 89.6326 7.45416 87.4592 6.95508 84.1589C11.2335 83.4465 14.3044 80.4762 17.8261 78.3511V78.3551Z" fill="#798BC5"/>
<path d="M12.59 42.7354C14.6145 44.8886 14.9807 47.5772 13.6123 50.2094C12.3525 52.6243 9.42244 54.0692 6.5447 53.6869C3.8843 53.3367 1.81957 51.3122 1.24805 48.4908C1.63845 48.4305 2.07313 48.4586 2.41122 48.2936C5.56265 46.7561 8.702 45.1945 11.8253 43.6047C12.1472 43.4397 12.3404 43.0332 12.594 42.7354H12.59Z" fill="#ACB5DB"/>
<path d="M252.368 103.244C251.97 104.098 252.167 104.971 252.171 105.816C252.171 106.766 252.187 107.43 250.843 107.418C249.543 107.406 249.289 106.947 249.31 105.78C249.374 102.315 249.418 98.8413 249.293 95.38C249.237 93.8184 250.155 93.2106 251.113 93.8385C252.385 94.6716 253.121 93.8224 254.071 93.5809C254.739 93.4119 255.383 93.4159 256.051 93.5688C258.072 94.0317 259.074 95.4283 259.456 97.328C259.903 99.5417 259.629 101.643 257.794 103.168C256.305 104.404 254.618 104.404 252.952 103.385C252.795 103.289 252.578 103.293 252.372 103.244H252.368ZM256.816 98.8937C256.84 96.8853 255.89 95.6094 254.389 95.6295C252.952 95.6497 252.054 96.8571 252.05 98.7769C252.046 100.689 252.932 101.88 254.389 101.912C255.89 101.948 256.792 100.83 256.816 98.8937Z" fill="#2F2C2D"/>
<path d="M86.4817 88.1113C88.2325 90.486 88.1641 92.9894 86.7071 95.3922C85.2259 97.8393 82.8714 98.9381 80.042 98.5034C77.3413 98.0888 75.3853 96.6037 74.7051 93.7984C75.1599 93.7098 75.663 93.7219 76.0614 93.5207C79.5469 91.7417 83.0123 89.9225 86.4857 88.1113H86.4817Z" fill="#446AB2"/>
<path d="M264.434 103.019C264.434 104.069 264.366 104.939 264.45 105.796C264.567 106.979 264.217 107.41 262.929 107.414C261.597 107.422 261.601 106.778 261.609 105.82C261.641 102.355 261.617 98.8936 261.625 95.4282C261.625 93.7257 262.397 93.1019 263.919 93.9068C264.663 94.3013 264.953 94.1362 265.557 93.8666C267.976 92.7759 270.507 93.8384 271.381 96.374C272.15 98.6159 272.121 100.862 270.471 102.769C269.107 104.351 267.115 104.428 264.438 103.015L264.434 103.019ZM269.01 98.8654C269.022 96.7966 268.117 95.5771 266.595 95.6174C265.146 95.6536 264.329 96.8087 264.333 98.805C264.337 100.789 265.167 101.904 266.656 101.928C268.173 101.948 268.998 100.878 269.014 98.8694L269.01 98.8654Z" fill="#2B2829"/>
<path d="M210.949 99.7389C210.949 100.471 210.925 101.204 210.953 101.936C211.021 103.792 210.321 104.528 208.804 103.683C207.858 103.156 207.443 103.579 206.779 103.764C205.745 104.053 204.718 104.231 203.632 103.913C202.13 103.474 201.422 102.492 201.418 100.991C201.414 99.5215 202.251 98.6321 203.603 98.2537C204.433 98.0203 205.306 97.9317 206.163 97.807C206.96 97.6902 207.838 97.6782 208.051 96.684C208.151 96.2051 207.846 95.7302 207.383 95.5652C206.542 95.2633 205.672 95.1989 204.964 95.9073C204.783 96.0884 204.734 96.4144 204.541 96.5714C203.72 97.2193 202.589 97.1791 201.973 96.6921C201.41 96.2453 202.098 95.3478 202.581 94.8045C204.014 93.1865 208.413 92.9732 210.043 94.406C210.695 94.9775 210.917 95.7261 210.925 96.5512C210.937 97.6178 210.925 98.6804 210.925 99.7469C210.933 99.7469 210.941 99.7469 210.953 99.7469L210.949 99.7389ZM205.922 102.186C207.391 102.17 208.007 101.296 208.119 99.9441C208.16 99.4612 208.172 98.9581 207.407 99.2237C206.26 99.6262 204.513 99.0828 204.276 100.926C204.147 101.928 205.048 102.162 205.922 102.182V102.186Z" fill="#2F2C2D"/>
<path d="M278.131 93.9592C280.449 93.2066 281.5 94.0478 281.874 96.2091C282.095 97.4769 282.695 98.6803 283.206 100.141C284.132 98.7085 284.47 97.2676 284.764 95.9073C285.202 93.8747 286.217 93.271 288.33 93.9914C286.869 97.8593 285.46 101.779 283.898 105.635C283.206 107.338 281.56 107.386 279.966 107.35C278.976 107.326 279.012 106.694 278.98 105.985C278.94 105.188 279.246 104.943 280.027 104.979C281.971 105.068 281.882 103.965 281.371 102.613C280.292 99.759 279.234 96.8974 278.135 93.9592H278.131Z" fill="#2B2829"/>
<path d="M182.795 98.7044C182.795 97.5694 182.787 96.4344 182.795 95.2994C182.811 93.8626 184.027 92.9731 184.997 93.8948C185.886 94.744 186.18 94.1966 186.8 93.8948C189.525 92.5666 192.04 94.0236 192.153 97.0221C192.221 98.8896 192.117 100.765 192.197 102.633C192.242 103.663 191.823 103.884 190.913 103.812C190.125 103.748 189.287 103.993 189.356 102.669C189.444 101.003 189.376 99.3323 189.348 97.662C189.328 96.523 188.901 95.718 187.581 95.7301C186.341 95.7422 185.729 96.4264 185.673 97.5896C185.605 98.9902 185.625 100.391 185.597 101.795C185.576 102.802 185.963 103.884 184.128 103.86C182.389 103.84 182.815 102.814 182.791 101.904C182.767 100.838 182.783 99.767 182.783 98.7004L182.795 98.7044Z" fill="#2B2829"/>
<path d="M246.926 98.918C246.926 99.9846 246.934 101.055 246.926 102.122C246.914 103.716 245.98 104.561 244.833 103.695C243.819 102.931 243.396 103.43 242.656 103.748C240.028 104.871 237.693 103.47 237.556 100.649C237.46 98.7167 237.584 96.7768 237.492 94.8449C237.436 93.7099 238.047 93.73 238.852 93.738C239.702 93.7461 240.43 93.6575 240.354 94.9294C240.253 96.5916 240.321 98.266 240.354 99.9322C240.374 100.975 240.76 101.759 241.972 101.808C243.175 101.856 243.932 101.293 244.004 100.097C244.109 98.435 244.181 96.7607 244.097 95.0984C244.032 93.8306 244.636 93.7622 245.65 93.7139C246.805 93.6575 246.994 94.1405 246.95 95.1145C246.89 96.3783 246.934 97.6502 246.934 98.918H246.926Z" fill="#2B2829"/>
<path d="M180.482 100.681C179.375 103.587 177.274 104.629 174.38 103.852C171.732 103.144 170.295 100.552 170.882 97.5412C171.378 95.0056 173.708 93.2387 176.272 93.456C178.811 93.6694 180.775 95.8629 180.84 98.4388C180.86 99.28 180.51 99.453 179.789 99.4409C178.188 99.4168 176.582 99.4168 174.98 99.445C174.557 99.453 173.965 99.1954 173.744 99.7267C173.487 100.347 173.841 100.93 174.304 101.321C175.29 102.15 176.517 102.242 177.415 101.429C178.344 100.588 179.266 100.572 180.482 100.681ZM175.724 97.8109C176.352 97.3199 177.644 98.4468 177.737 97.0945C177.809 96.0319 176.787 95.5811 175.744 95.6254C174.73 95.6657 173.688 96.1165 173.772 97.1629C173.869 98.3301 175.08 97.3802 175.724 97.8149V97.8109Z" fill="#2B2829"/>
<path d="M50.4475 97.8312C50.2664 98.455 49.8277 98.8213 49.2602 99.103C45.8592 100.793 42.4663 102.496 39.0694 104.194C37.9786 101.099 39.0975 97.8835 41.8384 96.2534C44.696 94.555 48.1695 95.1909 50.4515 97.8312H50.4475Z" fill="#5573B7"/>
<path d="M86.4816 88.1112C83.0082 89.9184 79.5428 91.7376 76.0574 93.5206C75.6629 93.7218 75.1558 93.7138 74.701 93.7983C73.7471 90.4255 75.0753 87.3224 78.11 85.8332C81.1165 84.3561 84.3807 85.2456 86.4816 88.1112Z" fill="#486BB3"/>
<path d="M12.5892 42.7354C12.3356 43.0292 12.1424 43.4397 11.8204 43.6047C8.69717 45.1945 5.55781 46.7561 2.40638 48.2936C2.0683 48.4586 1.63362 48.4305 1.24321 48.4908C0.353729 45.7258 1.80669 42.4979 4.57978 41.0651C7.31666 39.6523 10.8706 40.3929 12.5851 42.7354H12.5892Z" fill="#B9C0E2"/>
<path d="M198.52 103.885C196.028 103.84 195.389 103.184 195.36 100.737C195.348 99.6705 195.401 98.5999 195.344 97.5374C195.3 96.7364 195.855 95.5411 194.193 95.6216C193.678 95.6457 193.726 95.0661 193.734 94.6798C193.742 94.3095 193.618 93.738 194.209 93.7903C195.719 93.9271 195.409 92.8565 195.336 92.0838C195.215 90.8441 195.815 90.6952 196.862 90.6751C197.948 90.6549 198.278 91.0373 198.19 92.0596C198.109 92.9773 197.952 94.0237 199.502 93.7661C200.206 93.6494 200.17 94.1928 200.19 94.6757C200.214 95.2996 200.061 95.7665 199.321 95.6618C198.25 95.5089 198.117 96.0723 198.162 96.9457C198.222 98.0767 198.19 99.2117 198.174 100.347C198.166 100.999 198.29 101.703 199.043 101.659C200.347 101.582 200.263 102.379 200.166 103.176C200.021 104.396 198.995 103.611 198.516 103.885H198.52Z" fill="#2B2829"/>
<path d="M276.706 96.9737C276.706 98.7687 276.649 100.568 276.726 102.359C276.774 103.454 276.48 103.852 275.305 103.848C274.154 103.84 273.844 103.482 273.86 102.371C273.92 98.7164 273.916 95.0578 273.86 91.3993C273.844 90.3247 274.094 89.8658 275.293 89.8618C276.492 89.8618 276.758 90.3126 276.718 91.3912C276.649 93.2507 276.698 95.1142 276.698 96.9777L276.706 96.9737Z" fill="#2F2C2D"/>
<path d="M17.8254 78.3549C14.3037 80.48 11.2368 83.4503 6.95437 84.1627C6.57202 81.1119 7.81971 78.862 10.46 77.4091C12.9232 76.0527 15.5514 76.4431 17.8254 78.3549Z" fill="#8291C8"/>
<path d="M216.246 96.9012C216.246 98.8331 216.173 100.769 216.27 102.697C216.338 104.045 215.485 103.751 214.72 103.812C213.843 103.88 213.4 103.707 213.416 102.653C213.481 98.7888 213.473 94.921 213.416 91.0572C213.4 89.9906 213.907 89.8779 214.761 89.89C215.63 89.902 216.318 89.8698 216.262 91.1014C216.173 93.0293 216.238 94.9653 216.238 96.8972L216.246 96.9012Z" fill="#2B2829"/>
<path d="M67.199 94.4987C66.8488 95.3721 66.072 95.7545 65.2952 96.1127C62.7435 97.296 60.2924 98.7046 57.5273 99.3808C58.2116 94.7483 63.0252 92.3173 67.199 94.4947V94.4987Z" fill="#4C6DB4"/>
</g>
<defs>
<clipPath id="clip0_12180_42500">
<rect width="291.348" height="109" fill="white"/>
</clipPath>
</defs>
</svg>
